<?xml version="1.0" encoding="UTF-8" standalone="no"?>
<svg
   xmlns:dc="http://purl.org/dc/elements/1.1/"
   xmlns:cc="http://creativecommons.org/ns#"
   xmlns:rdf="http://www.w3.org/1999/02/22-rdf-syntax-ns#"
   xmlns:svg="http://www.w3.org/2000/svg"
   xmlns="http://www.w3.org/2000/svg"
   xmlns:sodipodi="http://sodipodi.sourceforge.net/DTD/sodipodi-0.dtd"
   xmlns:inkscape="http://www.inkscape.org/namespaces/inkscape"
   version="1.1"
   width="24"
   height="24"
   viewBox="0 0 24.00 24.00"
   enable-background="new 0 0 24.00 24.00"
   xml:space="preserve"
   id="svg827"
   sodipodi:docname="pdf-box.svg"
   inkscape:version="0.92.4 (5da689c313, 2019-01-14)"><metadata
   id="metadata833"><rdf:RDF><cc:Work
       rdf:about=""><dc:format>image/svg+xml</dc:format><dc:type
         rdf:resource="http://purl.org/dc/dcmitype/StillImage" /></cc:Work></rdf:RDF></metadata><defs
   id="defs831" /><sodipodi:namedview
   pagecolor="#ffffff"
   bordercolor="#666666"
   borderopacity="1"
   objecttolerance="10"
   gridtolerance="10"
   guidetolerance="10"
   inkscape:pageopacity="0"
   inkscape:pageshadow="2"
   inkscape:window-width="2736"
   inkscape:window-height="1699"
   id="namedview829"
   showgrid="false"
   inkscape:zoom="58"
   inkscape:cx="11.87069"
   inkscape:cy="12"
   inkscape:window-x="-13"
   inkscape:window-y="-13"
   inkscape:window-maximized="1"
   inkscape:current-layer="svg827" />
	<path
   id="path835"
   d="m 20,6 v 12 c 0,1.1 -0.9,2 -2,2 H 6 C 4.9,20 4,19.1 4,18 V 6 C 4,4.9 4.9,4 6,4 h 12 c 1.1,0 2,0.9 2,2 z"
   inkscape:connector-curvature="0"
   style="fill:#ffffff;fill-opacity:1;stroke-width:1.33333004;stroke-linejoin:miter"
   sodipodi:nodetypes="sssssssss" /><path
   fill="#ea4335"
   fill-opacity="1"
   stroke-width="1.33333"
   stroke-linejoin="miter"
   d="M 12,10.5L 13,10.5L 13,13.5L 12,13.5L 12,10.5 Z M 7,11.5L 8,11.5L 8,10.5L 7,10.5L 7,11.5 Z M 20,6L 20,18C 20,19.1 19.1,20 18,20L 6,20C 4.9,20 4,19.1 4,18L 4,6C 4,4.9 4.9,4 6,4L 18,4C 19.1,4 20,4.9 20,6 Z M 9.5,10.5C 9.5,9.67 8.83,9 8,9L 5.5,9L 5.5,15L 7,15L 7,13L 8,13C 8.83,13 9.5,12.33 9.5,11.5L 9.5,10.5 Z M 14.5,10.5C 14.5,9.67 13.83,9 13,9L 10.5,9L 10.5,15L 13,15C 13.83,15 14.5,14.33 14.5,13.5L 14.5,10.5 Z M 18.5,9L 15.5,9L 15.5,15L 17,15L 17,13L 18.5,13L 18.5,11.5L 17,11.5L 17,10.5L 18.5,10.5L 18.5,9 Z "
   id="path825" />
</svg>